<svg id="visual" viewBox="0 0 1920 1080" width="1920" height="1080" xmlns="http://www.w3.org/2000/svg" xmlns:xlink="http://www.w3.org/1999/xlink" version="1.1"><rect x="0" y="0" width="1920" height="1080" fill="#FFFFFF"></rect><defs><linearGradient id="grad1_0" x1="43.8%" y1="0%" x2="100%" y2="100%"><stop offset="14.444444444444446%" stop-color="#ffffff" stop-opacity="1"></stop><stop offset="85.55555555555554%" stop-color="#ffffff" stop-opacity="1"></stop></linearGradient></defs><defs><linearGradient id="grad2_0" x1="0%" y1="0%" x2="56.3%" y2="100%"><stop offset="14.444444444444446%" stop-color="#ffffff" stop-opacity="1"></stop><stop offset="85.55555555555554%" stop-color="#ffffff" stop-opacity="1"></stop></linearGradient></defs><g transform="translate(1920, 0)"><path d="M0 756C-81.6 752.6 -163.2 749.2 -233.6 719C-304.1 688.8 -363.3 631.8 -422 580.9C-480.7 530 -538.8 485.2 -590.6 429.1C-642.3 373 -687.7 305.5 -714.2 232.1C-740.8 158.7 -748.4 79.3 -756 0L0 0Z" fill="#ffcd00"></path></g><g transform="translate(0, 1080)"><path d="M0 -756C75.4 -740.5 150.8 -724.9 228.4 -702.8C305.9 -680.7 385.7 -652.1 433.2 -596.2C480.7 -540.4 495.9 -457.3 545.3 -396.2C594.7 -335.1 678.2 -296 719 -233.6C759.8 -171.3 757.9 -85.6 756 0L0 0Z" fill="#ffcd00"></path></g></svg>